<?xml version="1.0" standalone="no"?>
<!DOCTYPE svg PUBLIC "-//W3C//DTD SVG 20010904//EN"
 "http://www.w3.org/TR/2001/REC-SVG-20010904/DTD/svg10.dtd">
<svg version="1.0" xmlns="http://www.w3.org/2000/svg"
 width="1099.000000pt" height="658.000000pt" viewBox="0 0 1099.000000 658.000000"
 preserveAspectRatio="xMidYMid meet">

<g transform="translate(0.000000,658.000000) scale(0.100000,-0.100000)"
fill="#000000" stroke="none">
<path d="M5238 6553 c-15 -4 -18 -22 -20 -154 l-3 -150 -49 133 c-27 73 -53
137 -58 143 -19 21 -27 -17 -35 -155 l-8 -145 -49 138 c-45 122 -52 137 -73
137 -13 0 -23 -6 -22 -12 0 -7 35 -98 78 -203 49 -120 83 -190 92 -190 11 0
15 28 17 143 1 78 6 142 10 142 4 0 29 -57 57 -126 43 -110 65 -147 80 -133 8
9 17 439 9 438 -5 -1 -17 -3 -26 -6z"/>
<path d="M5450 6546 c0 -2 -20 -92 -45 -200 -25 -109 -45 -202 -45 -207 0 -6
10 -9 22 -7 18 2 24 12 31 46 8 42 9 42 51 42 l43 0 7 -50 c5 -41 10 -50 26
-50 25 0 25 2 -5 212 -34 230 -31 218 -60 218 -14 0 -25 -2 -25 -4z m45 -229
l7 -59 -34 7 c-18 4 -34 8 -35 9 -2 2 20 104 34 156 5 22 7 21 13 -15 4 -22
11 -66 15 -98z"/>
<path d="M5730 6464 c-71 -65 -110 -220 -76 -309 20 -52 55 -75 113 -75 l38 0
26 100 c15 55 24 102 20 104 -3 2 -22 7 -42 11 -31 6 -37 4 -42 -14 -3 -14 0
-21 8 -21 23 0 24 -14 8 -78 -16 -65 -21 -69 -56 -51 -32 17 -37 28 -37 90 0
74 33 179 66 213 33 33 64 33 102 1 25 -21 31 -23 36 -9 10 26 7 32 -28 53
-50 32 -89 27 -136 -15z"/>
<path d="M6015 6398 c-75 -181 -142 -358 -135 -358 5 0 15 -2 23 -6 10 -4 23
17 47 76 18 44 35 82 39 84 3 2 23 -4 43 -13 l37 -16 -35 -84 c-34 -84 -33
-100 1 -101 10 0 169 380 163 385 -2 2 -12 5 -23 9 -18 5 -24 -4 -48 -67 -40
-104 -38 -101 -81 -83 -20 8 -36 19 -36 23 0 4 14 43 31 86 27 65 30 80 18 88
-23 14 -29 11 -44 -23z"/>
<path d="M4545 6350 c-11 -4 -32 -13 -47 -19 l-28 -10 56 -118 c31 -65 72
-151 91 -191 l34 -73 48 27 c61 33 76 59 72 133 -1 30 -62 91 -91 91 -18 0
-20 4 -13 23 15 42 8 87 -18 112 -27 26 -74 38 -104 25z m67 -57 c26 -30 31
-62 14 -88 -9 -14 -21 -25 -26 -25 -14 0 -62 100 -56 116 8 20 50 17 68 -3z
m73 -149 c19 -8 45 -55 45 -83 0 -11 -12 -29 -27 -41 l-28 -21 -31 68 c-31 69
-30 83 8 83 9 0 24 -3 33 -6z"/>
<path d="M4282 6205 c-33 -23 -50 -40 -45 -48 21 -36 207 -323 213 -330 6 -6
100 45 129 70 3 2 -2 11 -11 19 -14 14 -19 13 -56 -10 l-40 -25 -24 37 c-14
20 -33 49 -42 64 l-18 28 36 21 c38 22 41 26 27 48 -7 11 -16 10 -46 -9 l-38
-23 -18 24 c-10 13 -26 39 -36 57 -16 30 -16 34 -2 42 37 21 62 47 55 58 -11
19 -28 14 -84 -23z"/>
<path d="M6444 6003 c-66 -81 -125 -154 -131 -164 -11 -15 -5 -23 43 -64 51
-44 57 -47 72 -32 15 15 13 19 -23 50 l-40 34 44 57 c24 31 46 56 49 56 3 0
20 -11 38 -25 29 -22 33 -23 45 -8 12 13 9 19 -20 44 l-34 28 31 39 c51 64 54
65 94 32 26 -22 38 -26 47 -17 19 19 12 30 -43 74 l-53 42 -119 -146z"/>
<path d="M4088 6063 c-16 -15 -13 -21 44 -85 l61 -69 -31 -31 -31 -31 -53 58
c-29 32 -58 64 -63 72 -9 12 -13 11 -28 -5 -17 -18 -13 -24 109 -158 70 -76
133 -146 140 -154 12 -12 16 -12 31 2 15 16 12 22 -46 86 l-61 70 32 27 32 27
65 -67 c58 -59 66 -65 80 -51 13 14 13 18 -5 38 -11 13 -71 79 -134 148 -62
69 -116 128 -120 132 -3 5 -13 0 -22 -9z"/>
<path d="M6625 5826 l-150 -145 42 -41 c37 -35 48 -40 90 -40 57 0 95 21 164
90 57 57 79 102 79 160 0 33 -7 48 -37 81 l-38 40 -150 -145z m179 43 c14 -39
2 -69 -53 -130 -60 -67 -125 -105 -165 -95 -53 13 -44 33 70 147 60 60 116
108 124 107 8 -2 19 -15 24 -29z"/>
<path d="M5186 5945 c-314 -51 -589 -191 -841 -427 -706 -663 -1021 -1888
-785 -3050 55 -266 158 -574 261 -780 22 -43 39 -80 39 -84 0 -3 -15 5 -33 19
-53 40 -192 106 -302 143 -409 137 -837 79 -1155 -156 -114 -84 -392 -365
-515 -520 -242 -304 -472 -485 -716 -562 -63 -19 -95 -23 -209 -23 -127 1
-140 2 -219 33 -170 65 -316 184 -377 309 -23 46 -29 72 -29 125 0 60 3 70 29
97 136 142 536 26 536 -155 0 -35 -5 -47 -28 -64 -23 -18 -37 -21 -86 -18 -53
4 -63 8 -92 41 -37 40 -43 64 -17 74 11 4 22 -1 31 -15 19 -29 50 -28 64 3 24
53 -39 125 -109 125 -77 0 -98 -115 -37 -203 63 -89 168 -140 291 -141 72 -1
107 19 137 78 16 32 17 44 7 75 -42 140 -243 291 -479 357 -80 23 -108 26
-200 22 -94 -3 -115 -7 -173 -35 -77 -36 -140 -89 -163 -137 -25 -52 -22 -188
5 -243 77 -158 392 -335 730 -410 130 -28 405 -26 518 5 341 93 583 280 895
695 148 197 260 308 401 399 197 128 384 175 643 165 218 -8 396 -58 628 -173
101 -50 114 -60 135 -99 13 -24 21 -46 18 -50 -3 -3 -49 20 -101 50 -326 190
-688 244 -993 148 -310 -97 -538 -336 -616 -643 -38 -148 -13 -279 64 -347 42
-37 75 -48 212 -69 372 -59 753 110 899 398 62 122 62 229 0 298 -49 54 -108
74 -214 74 -107 -1 -190 -22 -305 -79 -173 -85 -262 -196 -253 -312 4 -49 10
-61 40 -89 66 -60 195 -55 281 10 87 66 127 180 80 228 -40 39 -149 33 -207
-13 -50 -39 -28 -139 31 -139 11 0 27 7 34 16 11 14 11 18 -4 29 -22 16 -12
43 20 51 16 4 30 0 43 -11 39 -36 17 -91 -50 -125 -49 -25 -71 -25 -120 0 -74
38 -90 114 -41 191 34 55 97 94 184 115 104 26 206 -5 261 -79 18 -24 21 -43
21 -115 0 -78 -4 -93 -32 -148 -41 -79 -125 -156 -190 -175 -103 -29 -225 -9
-369 62 -75 37 -83 43 -108 94 -104 213 -54 423 137 573 178 139 410 208 618
183 261 -30 405 -100 764 -369 134 -101 138 -104 95 -96 -25 5 -97 9 -160 9
-98 -1 -123 -4 -167 -24 -58 -25 -119 -86 -129 -126 -14 -56 2 -124 42 -183
81 -117 201 -185 329 -186 128 -1 201 60 193 161 -9 110 -99 199 -214 210
l-59 6 43 -32 c48 -36 56 -70 20 -95 -34 -24 -66 -19 -99 13 -21 22 -29 39
-29 66 0 48 12 69 55 95 52 32 129 29 233 -9 66 -25 82 -28 82 -16 0 8 2 15 5
15 3 0 48 -37 101 -81 226 -190 440 -295 721 -354 118 -25 358 -23 491 4 257
53 506 181 720 370 50 45 94 81 97 81 3 0 5 -7 5 -15 0 -20 3 -20 100 15 47
16 96 30 110 30 82 0 160 -53 160 -110 0 -75 -63 -125 -121 -95 -48 26 -36 76
26 109 l30 15 -51 1 c-69 0 -145 -40 -188 -98 -28 -40 -31 -51 -31 -117 0 -68
2 -76 30 -105 38 -40 86 -53 176 -48 96 5 171 39 249 114 131 125 145 247 39
337 -75 65 -211 90 -351 65 -43 -8 -78 -13 -78 -11 0 4 260 196 340 250 301
203 570 264 845 191 344 -90 563 -342 515 -591 -6 -34 -25 -92 -42 -129 -27
-60 -36 -69 -87 -96 -220 -116 -397 -114 -516 6 -64 63 -98 142 -103 234 -3
65 -1 82 18 116 41 72 149 112 249 91 142 -29 244 -130 226 -225 -7 -40 -62
-91 -107 -99 -90 -17 -187 85 -132 139 21 22 47 20 69 -4 18 -20 18 -21 0 -34
-16 -12 -17 -16 -6 -30 34 -41 91 -2 91 62 0 63 -85 111 -175 99 -45 -6 -85
-44 -85 -80 1 -34 38 -108 73 -146 67 -71 190 -101 270 -67 115 49 114 197 -3
314 -135 134 -381 222 -541 193 -152 -26 -216 -122 -183 -275 21 -99 140 -256
259 -341 216 -154 543 -207 805 -129 163 48 210 239 119 489 -79 219 -230 385
-444 491 -170 84 -234 98 -455 98 -168 1 -195 -2 -290 -26 -159 -40 -326 -113
-457 -199 -37 -24 -41 -16 -22 39 12 34 90 83 219 137 464 196 866 184 1198
-36 136 -89 247 -201 392 -394 148 -197 284 -349 388 -435 273 -225 513 -311
826 -297 390 18 828 224 935 439 90 179 -24 355 -262 404 -94 20 -174 12 -314
-32 -238 -75 -442 -245 -443 -369 0 -37 30 -88 65 -111 37 -24 137 -22 218 5
116 39 210 162 193 254 -11 58 -57 85 -110 63 -41 -17 -76 -61 -76 -95 0 -49
44 -69 68 -31 7 11 18 20 26 20 44 0 6 -83 -49 -106 -101 -42 -193 15 -165
102 28 85 126 150 267 179 130 26 231 -1 281 -76 52 -76 3 -218 -118 -340
-166 -167 -414 -243 -641 -195 -257 55 -540 268 -783 591 -121 161 -423 460
-558 553 -125 86 -284 145 -477 177 -290 49 -708 -41 -928 -199 -29 -21 -53
-36 -53 -33 0 2 23 53 51 113 308 655 404 1441 268 2204 -118 666 -420 1260
-824 1622 -228 204 -471 333 -732 388 -130 28 -338 34 -457 15z m477 -204
c271 -69 533 -239 743 -484 233 -272 396 -577 519 -973 151 -487 194 -1092
115 -1617 -153 -1010 -699 -1790 -1375 -1967 -342 -89 -707 -12 -1028 217
-108 77 -287 256 -375 373 -296 398 -479 878 -559 1466 -26 190 -25 756 0 939
63 440 182 817 365 1150 234 426 567 738 922 863 162 57 257 72 430 67 98 -3
151 -10 243 -34z"/>
<path d="M5250 5579 c-36 -15 -69 -48 -93 -94 -66 -129 27 -316 159 -319 39
-1 50 3 75 32 34 38 39 90 14 150 -25 58 -53 82 -96 82 -44 0 -59 -16 -66 -69
-7 -51 16 -91 52 -91 31 0 31 5 -1 42 -31 38 -29 72 6 76 61 7 101 -107 56
-157 -40 -45 -122 -8 -146 66 -53 158 126 273 236 151 82 -89 135 -330 91
-414 -30 -59 -82 -92 -151 -97 -25 -2 -30 3 -40 38 -20 64 -35 86 -71 101
-107 44 -124 -99 -18 -151 41 -20 53 -42 53 -101 0 -21 -5 -24 -35 -24 -40 0
-40 0 -18 -59 l17 -44 -219 -216 -220 -215 -3 199 -2 198 25 27 c18 18 25 37
25 64 l0 38 -257 -4 c-210 -3 -265 -7 -294 -20 -70 -31 -89 -96 -46 -158 62
-91 218 -95 289 -7 24 31 23 82 -3 108 -18 18 -30 21 -82 17 -47 -4 -64 -9
-78 -27 -23 -28 -25 -74 -4 -91 29 -24 128 20 110 50 -12 19 -52 11 -59 -12
-5 -21 -7 -22 -22 -6 -26 26 -10 46 41 54 40 5 50 3 68 -14 18 -18 19 -25 9
-47 -16 -35 -69 -65 -116 -65 -77 0 -139 67 -112 121 19 40 76 61 166 61 90 0
146 -21 193 -70 l26 -27 7 -420 7 -419 99 103 99 104 44 -43 c43 -42 44 -44
50 -129 4 -47 11 -92 14 -99 5 -9 45 27 128 116 120 128 121 129 127 99 3 -16
6 -55 6 -86 l0 -56 28 28 27 28 10 -52 10 -51 474 481 c308 313 486 487 509
497 130 54 192 -44 94 -148 -70 -75 -171 -43 -128 40 18 34 48 45 72 27 17
-12 16 -13 -4 -26 -25 -15 -29 -39 -8 -39 23 0 78 69 74 93 -8 54 -128 18
-175 -52 -29 -43 -29 -66 2 -96 68 -68 221 11 270 139 18 46 18 48 -2 73 -10
15 -33 31 -49 35 -16 4 -141 5 -277 1 l-248 -6 3 -41 3 -41 -253 -249 c-139
-137 -254 -247 -256 -245 -2 2 -6 82 -8 178 l-4 173 125 120 c132 127 206 178
257 178 48 0 61 -56 24 -103 -25 -31 -87 -52 -107 -35 -18 14 -17 21 9 54 l22
28 6 -25 c7 -28 35 -37 44 -14 3 9 1 26 -5 37 -29 54 -151 -34 -135 -97 8 -30
61 -49 112 -39 99 18 183 176 123 230 -16 14 -36 19 -78 18 -67 0 -108 -20
-166 -80 l-43 -44 -141 0 -141 0 0 38 0 38 73 0 c61 -1 77 3 106 23 97 70 100
270 5 468 -36 75 -118 174 -164 198 -39 20 -100 27 -130 14z"/>
<path d="M4059 4385 c-134 -43 -233 -226 -168 -309 45 -57 112 -56 178 0 84
73 76 184 -14 184 -38 0 -74 -31 -76 -64 -3 -43 3 -62 22 -78 39 -34 -15 -59
-56 -26 -59 46 -13 154 87 204 97 49 195 30 266 -50 17 -20 36 -52 41 -73 14
-50 14 -166 1 -158 -6 4 -36 1 -66 -5 -92 -19 -166 -106 -143 -168 7 -18 16
-22 54 -22 60 0 107 21 134 59 12 17 30 31 40 31 38 0 41 -33 41 -538 l0 -487
-46 -29 c-68 -43 -161 -48 -198 -10 -9 8 -16 30 -16 49 0 58 119 145 156 114
18 -15 18 -43 0 -58 -12 -10 -17 -8 -26 8 -15 28 -38 26 -52 -4 -13 -30 3 -55
37 -55 36 0 85 21 95 40 15 28 12 86 -5 100 -44 36 -199 -15 -246 -81 -34 -48
-31 -125 5 -156 36 -30 123 -31 226 -2 64 18 92 20 193 16 l117 -6 0 172 0
173 66 72 66 72 111 -148 112 -149 8 151 8 150 -40 58 c-23 31 -41 62 -41 68
0 7 16 31 35 54 l35 43 -7 80 -6 80 -176 -188 -176 -188 -3 77 c-1 42 1 187 6
322 7 204 11 249 25 271 l17 26 -76 7 c-43 3 -104 6 -137 6 -51 0 -58 2 -53
17 4 9 9 42 13 73 12 120 -38 217 -136 258 -65 29 -172 36 -232 17z"/>
<path d="M6473 4235 c-91 -20 -185 -69 -252 -130 -58 -55 -59 -55 -123 -55
-111 0 -278 -13 -273 -21 6 -8 -514 -569 -527 -569 -4 0 -8 26 -8 58 0 33 -3
107 -7 166 l-6 108 -124 -124 -123 -123 0 -122 0 -122 118 -182 117 -182 8
184 8 184 67 68 c36 37 69 67 72 67 3 -1 30 -32 60 -70 30 -37 59 -66 65 -63
40 23 105 77 105 88 0 7 -16 47 -35 90 l-36 77 48 57 c91 108 328 338 376 365
28 16 65 28 90 29 l42 2 -4 -67 c-3 -64 -1 -69 27 -98 80 -80 221 4 222 131 0
47 -19 78 -66 105 -18 11 -18 13 11 43 82 87 311 78 384 -15 37 -47 46 -96 33
-182 -21 -138 -89 -232 -168 -232 -72 0 -109 105 -66 190 21 43 75 80 116 80
61 0 73 -45 31 -115 -26 -45 -45 -58 -70 -49 -21 9 -19 24 4 24 22 0 38 37 24
51 -14 14 -60 -6 -73 -31 -29 -53 24 -103 83 -79 16 7 41 30 55 52 22 33 27
52 27 104 0 59 -3 67 -28 89 -54 46 -122 25 -190 -58 -102 -124 -103 -249 -2
-298 116 -56 231 9 291 165 29 75 27 244 -3 301 -29 55 -73 90 -135 109 -61
18 -83 18 -165 0z"/>
<path d="M6025 3554 c-143 -30 -310 -89 -335 -119 -9 -10 -2 -28 29 -78 23
-35 44 -78 47 -96 7 -33 -34 -261 -46 -261 -4 0 -49 55 -100 121 l-93 122 -19
-36 c-46 -91 -60 -248 -33 -366 31 -131 114 -256 219 -333 l39 -28 -71 0 c-80
0 -85 -6 -57 -61 11 -19 38 -40 84 -64 54 -26 71 -41 79 -65 14 -39 6 -60 -23
-60 -16 0 -27 11 -40 40 -20 45 -36 49 -65 20 -24 -24 -25 -49 -6 -76 12 -15
27 -19 73 -19 l58 0 3 -32 3 -33 -62 0 c-58 0 -63 2 -100 39 -22 21 -39 48
-39 60 0 24 24 77 48 104 14 16 9 17 -88 17 l-102 0 14 -22 c8 -13 38 -63 67
-112 78 -128 188 -272 261 -340 106 -98 237 -142 395 -133 171 9 288 85 316
205 12 55 -5 104 -51 146 -104 94 -270 75 -321 -38 -45 -99 -6 -166 96 -166
85 0 115 10 136 44 10 17 19 37 19 44 0 17 -37 52 -54 52 -21 0 -45 -27 -53
-58 -16 -68 -83 -48 -83 24 0 84 129 140 194 85 41 -35 54 -69 45 -118 -20
-104 -88 -153 -221 -161 -69 -4 -84 -2 -132 22 -72 35 -152 123 -205 225 -23
44 -46 81 -52 81 -5 0 -9 11 -9 25 0 14 6 25 13 25 9 0 11 31 9 131 -3 124 -3
131 15 125 51 -20 146 -36 216 -36 l78 0 -37 45 -36 45 39 0 c22 0 74 3 115 6
l75 7 11 -46 c7 -25 12 -48 12 -51 0 -3 -19 -6 -42 -7 -24 0 -61 -3 -82 -7
l-40 -7 45 -39 c134 -117 385 -169 521 -109 63 29 132 94 163 156 48 97 26
147 -68 155 -129 10 -267 -75 -267 -166 0 -43 27 -55 108 -50 56 4 68 8 88 32
43 50 21 99 -36 81 -15 -5 -20 -15 -20 -41 0 -32 -2 -35 -26 -32 -69 8 -51 79
28 112 90 37 154 -2 128 -79 -12 -38 -74 -99 -115 -115 -47 -19 -144 -15 -196
8 -48 21 -172 118 -167 132 2 4 37 34 78 67 125 99 213 226 244 352 10 40 17
49 54 66 26 12 42 26 42 37 0 17 -15 18 -187 20 -287 4 -297 4 -326 -18 -68
-50 -89 -157 -41 -213 44 -53 138 -62 169 -17 24 34 19 103 -10 131 -30 31
-37 31 -71 2 -22 -19 -26 -29 -20 -50 7 -29 46 -39 46 -13 0 22 19 30 35 16
36 -30 -4 -82 -62 -82 -57 0 -95 93 -62 154 22 41 119 61 187 37 27 -9 32 -17
38 -56 12 -79 -1 -207 -26 -258 -27 -55 -72 -87 -117 -83 -30 3 -44 22 -262
358 -132 203 -231 365 -231 378 0 36 25 76 80 125 96 86 250 137 356 118 97
-18 130 -57 125 -148 -1 -29 -56 -91 -84 -95 -13 -2 -23 -11 -25 -24 -3 -19 3
-22 65 -27 37 -4 137 -7 221 -7 l152 0 0 24 c0 21 -6 26 -43 31 -42 7 -44 9
-72 72 -48 110 -151 194 -276 222 -42 10 -233 13 -274 5z m-143 -802 c81 -125
145 -228 143 -230 -8 -8 -101 29 -139 56 -56 38 -110 127 -134 219 -23 88 -39
202 -26 190 5 -5 75 -110 156 -235z"/>
<path d="M4794 3031 c-46 -21 -100 -81 -109 -121 -3 -15 -1 -39 4 -53 l11 -27
195 0 c107 0 195 3 195 6 0 3 -16 33 -37 65 l-36 60 -30 -36 c-69 -84 -190
-98 -216 -25 -8 24 -6 35 12 62 39 56 117 61 117 7 0 -23 -19 -25 -35 -2 -14
19 -35 10 -35 -16 0 -42 65 -56 100 -21 28 28 25 66 -6 95 -32 30 -73 32 -130
6z"/>
<path d="M5235 2826 c-60 -4 -111 -10 -113 -11 -2 -1 44 -74 101 -161 57 -88
102 -161 100 -164 -2 -2 -124 -9 -271 -15 l-267 -12 -58 64 c-97 105 -185 143
-336 143 -98 0 -144 -15 -186 -61 -40 -45 -52 -95 -35 -152 31 -103 152 -145
265 -91 98 46 67 178 -41 178 -45 0 -84 -40 -84 -85 0 -34 19 -46 50 -29 16 9
20 18 16 35 -7 27 26 58 50 48 40 -15 -9 -115 -61 -125 -32 -6 -98 23 -119 53
-36 52 -4 127 67 159 53 25 165 26 235 4 63 -21 138 -78 166 -127 l21 -37 -33
-26 c-83 -66 -83 -158 2 -198 48 -22 97 -20 137 7 82 55 78 162 -7 183 -32 8
-74 -20 -87 -59 -11 -34 5 -57 39 -57 25 0 27 6 24 53 -1 21 3 27 19 27 36 0
39 -62 3 -102 -23 -27 -78 -23 -107 7 -35 34 -32 70 8 110 64 64 150 64 215
-1 l33 -33 -3 -413 c-3 -411 -3 -413 -27 -466 -49 -108 -185 -195 -278 -177
-46 8 -83 46 -83 83 0 26 7 33 58 58 101 51 135 144 71 198 -56 47 -166 27
-200 -36 -7 -13 -16 -43 -19 -68 -5 -45 -5 -45 -40 -42 -122 11 -230 142 -260
314 -29 163 62 333 205 387 65 25 94 26 138 7 57 -24 82 -61 82 -121 0 -74
-29 -105 -97 -105 -60 0 -98 31 -98 80 0 39 41 83 73 78 32 -4 34 -35 3 -49
-17 -8 -26 -20 -26 -36 0 -47 70 -42 95 7 34 67 11 110 -61 110 -86 0 -134
-44 -134 -122 0 -38 6 -54 28 -78 82 -92 284 -30 308 95 23 127 -69 203 -235
193 -99 -6 -157 -32 -230 -106 -174 -174 -184 -422 -24 -593 54 -58 126 -94
214 -108 35 -6 67 -11 70 -11 3 0 6 -20 6 -44 1 -56 25 -101 66 -122 45 -24
127 -28 441 -19 l276 7 0 42 c0 23 9 55 20 74 l20 32 -60 0 -60 0 0 209 c0
116 3 212 8 214 4 2 59 2 123 -1 l117 -4 11 -38 c25 -83 4 -130 -58 -130 -62
0 -98 65 -50 90 26 15 44 8 44 -16 0 -23 38 -27 43 -3 5 29 -36 69 -73 69 -73
0 -99 -96 -40 -147 22 -19 38 -23 101 -23 l74 0 0 138 c0 77 3 200 7 276 l6
137 -99 -3 -99 -3 -14 -41 c-25 -71 5 -114 78 -114 45 0 66 23 62 73 -2 30
-39 21 -43 -10 -2 -22 -8 -28 -27 -28 -35 0 -50 29 -31 62 20 35 60 50 98 37
26 -9 27 -11 27 -90 0 -114 0 -114 -152 -114 l-124 0 3 203 3 202 102 3 102 3
-25 56 c-29 65 -27 68 54 78 102 13 102 1 -4 185 -53 91 -97 165 -97 165 -1 0
-51 -4 -112 -9z"/>
<path d="M5641 1625 c-14 -19 -34 -28 -74 -35 -98 -16 -170 -66 -201 -142 -20
-48 -20 -48 9 -48 24 0 25 -2 25 -75 l0 -75 240 0 240 0 0 200 0 200 -109 0
c-105 0 -110 -1 -130 -25z"/>
<path d="M5303 1208 c26 -158 144 -274 293 -286 86 -6 128 4 171 41 43 38 63
81 63 138 0 83 -97 137 -197 110 -80 -22 -121 -113 -73 -161 26 -26 81 -26
104 -1 25 27 17 54 -22 70 -37 17 -37 32 1 45 35 13 94 -14 107 -49 13 -35
-14 -102 -49 -119 -126 -63 -257 21 -296 189 l-11 50 -49 3 -48 3 6 -33z"/>
<path d="M3828 5813 c-15 -17 -7 -30 114 -186 117 -150 132 -167 146 -153 16
15 15 17 -33 82 -7 10 -1 22 19 43 l28 30 40 -26 c37 -22 42 -23 56 -9 9 8 14
17 11 19 -12 10 -337 207 -350 212 -8 3 -22 -2 -31 -12z m155 -109 c40 -26 74
-48 76 -50 3 -3 -5 -14 -17 -26 -16 -17 -24 -19 -35 -10 -21 18 -109 132 -102
132 4 0 39 -21 78 -46z"/>
<path d="M6850 5640 c-98 -79 -138 -118 -146 -142 -22 -62 18 -118 83 -118 27
0 58 20 166 106 72 59 136 110 141 115 9 8 -9 39 -23 39 -4 0 -65 -47 -136
-105 -135 -109 -176 -128 -190 -85 -10 31 6 49 139 155 69 55 125 105 126 111
0 6 -6 16 -13 22 -10 8 -45 -15 -147 -98z"/>
<path d="M3691 5654 c-25 -32 -26 -46 -6 -84 17 -34 72 -65 130 -75 85 -14
145 -36 155 -56 14 -26 4 -56 -21 -64 -16 -5 -18 -10 -8 -21 18 -22 47 -17 65
12 26 39 22 80 -11 114 -29 31 -58 41 -174 66 -92 20 -123 54 -85 95 17 19 12
39 -11 39 -7 0 -23 -12 -34 -26z"/>
<path d="M3543 5451 c-10 -17 5 -36 140 -170 135 -134 153 -149 165 -134 10
14 7 22 -20 50 l-32 33 18 35 c22 40 24 41 70 18 29 -13 38 -14 51 -3 9 7 12
17 8 21 -9 8 -372 169 -382 169 -4 0 -11 -8 -18 -19z m247 -136 c0 -5 -7 -18
-15 -29 -13 -18 -17 -15 -80 39 -36 32 -65 61 -65 65 0 5 36 -8 80 -28 44 -20
80 -41 80 -47z"/>
<path d="M7033 5435 c-80 -40 -159 -113 -171 -158 -18 -65 32 -131 79 -106
l23 12 -27 14 c-34 17 -44 54 -22 86 18 27 107 93 172 126 69 35 113 24 113
-27 0 -18 4 -23 16 -18 9 3 18 6 20 6 15 0 0 55 -21 75 -36 37 -95 34 -182
-10z"/>
<path d="M3443 5287 c-10 -22 -6 -30 65 -100 l77 -76 109 -17 c105 -16 110
-16 122 1 8 10 13 20 11 21 -1 1 -53 10 -114 19 l-113 16 -54 57 c-30 31 -63
68 -73 81 l-19 23 -11 -25z"/>
<path d="M7116 5195 c-104 -36 -190 -66 -192 -67 -1 -2 3 -11 10 -21 12 -16
17 -16 56 -2 23 8 43 15 44 15 1 0 10 -16 21 -36 l19 -36 -37 -32 c-33 -27
-36 -34 -25 -49 12 -16 28 -5 173 114 88 72 162 136 163 141 5 12 -18 38 -32
37 -6 0 -96 -29 -200 -64z m132 -4 c-1 -5 -32 -33 -68 -61 l-65 -52 -17 22
c-10 12 -18 26 -18 30 0 5 131 59 168 69 2 1 2 -3 0 -8z"/>
<path d="M3386 5183 c-4 -9 -3 -20 1 -24 4 -4 86 -51 182 -104 171 -95 191
-101 191 -60 0 9 -347 205 -362 205 -3 0 -9 -8 -12 -17z"/>
<path d="M7373 5119 c-9 -9 -9 -19 2 -39 l14 -26 -169 -84 c-161 -80 -168 -85
-158 -106 11 -23 12 -22 179 62 l169 84 15 -30 c13 -26 19 -29 35 -20 19 10
18 14 -20 90 -22 44 -44 80 -48 80 -4 0 -13 -5 -19 -11z"/>
<path d="M3293 5002 c-3 -10 -8 -20 -10 -24 -2 -3 70 -58 159 -120 201 -141
188 -134 199 -117 13 21 12 24 -30 53 l-39 27 17 40 c9 21 21 37 28 35 6 -3
27 -8 46 -11 29 -6 37 -3 46 12 9 18 -2 22 -167 63 -264 64 -243 60 -249 42z
m189 -72 c39 -11 73 -21 75 -24 4 -4 -13 -43 -23 -55 -3 -4 -144 90 -144 96 0
6 22 2 92 -17z"/>
<path d="M7325 4819 c-223 -90 -204 -80 -194 -106 8 -22 11 -21 186 51 98 40
186 75 196 79 14 5 16 11 7 27 -6 11 -14 20 -18 19 -4 0 -83 -32 -177 -70z"/>
<path d="M3215 4819 c-8 -25 -11 -21 89 -93 l79 -56 112 0 c114 0 125 4 125
40 0 5 -51 6 -114 3 l-114 -6 -74 60 c-95 77 -95 77 -103 52z"/>
<path d="M3175 4709 c-4 -11 -5 -22 -3 -23 9 -7 375 -136 384 -136 16 0 25 40
11 45 -7 3 -94 34 -193 70 -100 36 -184 65 -187 65 -3 0 -9 -9 -12 -21z"/>
<path d="M7405 4716 c-104 -26 -180 -76 -205 -135 -15 -37 2 -79 40 -99 61
-32 247 15 319 81 38 35 54 83 39 115 -25 51 -90 64 -193 38z m153 -64 c5 -33
-18 -55 -97 -91 -74 -34 -146 -51 -186 -43 -31 6 -39 16 -31 47 12 48 166 116
256 112 49 -2 55 -4 58 -25z"/>
<path d="M7508 4430 c-237 -66 -248 -70 -248 -85 0 -7 4 -16 8 -19 7 -4 182
39 240 59 35 12 0 -17 -98 -85 -84 -58 -109 -80 -107 -95 1 -11 7 -19 12 -19
6 1 97 26 203 55 127 35 192 57 192 66 0 26 -29 24 -140 -7 -61 -17 -114 -30
-116 -27 -2 2 45 39 106 82 72 50 110 83 108 93 -2 8 -7 16 -13 18 -5 1 -71
-15 -147 -36z"/>
<path d="M3089 4325 c-24 -13 -38 -37 -54 -92 -3 -13 -4 -23 -1 -23 3 0 94
-21 202 -46 107 -25 197 -44 199 -43 2 2 5 13 7 24 3 17 -8 22 -85 39 -66 15
-87 24 -85 35 4 20 39 29 124 30 71 1 84 7 84 43 0 14 -172 3 -201 -13 -17 -9
-24 -7 -36 11 -18 25 -71 50 -105 50 -13 -1 -35 -7 -49 -15z m109 -51 c12 -8
22 -24 22 -36 0 -17 -4 -19 -27 -14 -109 27 -115 30 -91 54 17 17 69 15 96 -4z"/>
<path d="M3005 4088 c-16 -72 -24 -113 -21 -115 6 -6 400 -83 404 -79 4 5 31
122 32 139 0 5 -10 7 -22 5 -18 -2 -24 -12 -31 -45 -9 -48 -6 -47 -93 -31
l-64 11 3 46 c2 35 -2 46 -15 49 -12 2 -18 -7 -23 -37 -8 -46 -13 -48 -93 -30
l-50 10 9 37 c12 54 11 62 -11 62 -12 0 -22 -8 -25 -22z"/>
<path d="M7654 3956 c-17 -8 -60 -35 -95 -61 -72 -53 -102 -67 -124 -59 -25
10 -37 41 -25 64 13 24 -6 28 -35 7 -25 -19 -13 -79 20 -101 49 -32 102 -17
216 63 96 68 139 68 139 0 0 -12 7 -19 20 -19 15 0 20 7 20 29 0 43 -9 60 -41
76 -34 18 -55 18 -95 1z"/>
<path d="M2955 3784 c-4 -36 -5 -68 -2 -70 2 -2 93 -16 202 -30 213 -27 214
-27 215 26 0 14 3 42 6 63 6 33 4 37 -15 37 -21 0 -27 -13 -33 -70 -3 -27 -14
-28 -113 -15 l-40 5 3 45 c4 40 2 45 -16 45 -16 0 -22 -9 -27 -40 -7 -44 -16
-47 -99 -33 l-38 6 5 49 c6 45 5 48 -17 48 -22 0 -24 -6 -31 -66z"/>
<path d="M7540 3740 c-83 -17 -150 -66 -150 -110 0 -24 36 -67 70 -85 38 -20
181 -20 247 0 69 21 113 62 113 107 0 41 -21 64 -77 84 -40 14 -145 17 -203 4z
m204 -51 c14 -7 28 -19 31 -27 9 -23 -31 -59 -80 -71 -58 -14 -197 -14 -230 1
-29 13 -34 48 -9 69 38 32 237 51 288 28z"/>
<path d="M2938 3606 c-6 -28 -22 -22 185 -62 48 -9 85 -19 83 -22 -3 -2 -65
-9 -138 -16 -126 -10 -133 -12 -136 -33 -3 -18 1 -23 20 -23 23 0 316 35 376
45 37 7 43 32 10 40 -102 24 -366 87 -379 91 -12 3 -18 -3 -21 -20z"/>
<path d="M7495 3444 c-22 -8 -50 -26 -62 -40 -39 -43 -25 -114 23 -114 23 0
24 1 10 23 -19 28 -12 58 17 77 25 16 195 26 252 16 46 -9 69 -43 56 -80 -9
-23 -8 -26 9 -26 21 0 40 27 40 59 0 34 -46 78 -94 90 -61 15 -202 13 -251 -5z"/>
<path d="M3110 3374 c-102 -18 -186 -33 -187 -33 -2 -1 -3 -12 -3 -25 0 -27
-14 -23 249 -77 171 -34 171 -34 171 -10 0 15 -10 22 -42 28 -43 9 -43 9 -43
53 l0 45 43 3 c37 3 42 6 42 28 0 30 5 30 -230 -12z m86 -91 c-6 -6 -145 17
-166 28 -9 4 4 10 35 14 28 4 68 10 90 14 38 6 40 6 43 -22 2 -16 1 -31 -2
-34z"/>
<path d="M7420 3211 c0 -25 50 -31 256 -31 l164 0 0 25 0 25 -210 0 c-198 0
-210 -1 -210 -19z"/>
<path d="M3125 3145 c-110 -7 -201 -13 -202 -14 -2 0 -3 -9 -3 -19 0 -14 19
-25 80 -46 44 -16 80 -30 80 -32 0 -2 -34 -19 -75 -38 -60 -28 -75 -39 -75
-57 0 -21 2 -22 88 -16 48 4 142 9 210 13 121 7 122 7 122 31 0 24 -2 25 -57
19 -32 -3 -103 -8 -158 -11 l-100 -5 68 32 c37 17 67 35 67 39 0 4 -29 15 -65
24 -36 10 -65 22 -65 26 0 5 37 9 83 9 45 0 112 3 150 7 62 5 67 8 67 29 0 13
-3 23 -7 22 -5 0 -98 -7 -208 -13z"/>
<path d="M7418 3094 c-5 -4 -8 -38 -8 -76 0 -60 2 -68 19 -68 15 0 20 10 25
50 l7 50 74 0 75 0 0 -45 c0 -38 3 -45 20 -45 17 0 20 7 20 40 l0 41 68 -3 67
-3 -2 -47 c-3 -45 -1 -48 22 -48 24 0 25 2 25 69 l0 69 -52 6 c-99 10 -353 18
-360 10z"/>
<path d="M3256 2860 c-38 -16 -79 -39 -91 -50 -20 -18 -23 -19 -35 -5 -16 19
-92 20 -129 0 -36 -18 -55 -64 -47 -110 4 -19 10 -35 14 -35 4 0 90 11 192 25
102 14 191 25 198 25 6 0 12 12 12 26 0 23 -3 25 -27 20 -16 -3 -58 -8 -95
-12 -60 -6 -68 -4 -68 10 0 17 94 67 154 82 27 6 30 12 20 38 -8 22 -18 20
-98 -14z m-145 -90 c30 -16 23 -38 -13 -44 -87 -14 -98 -13 -98 5 0 19 17 35
45 42 34 8 46 7 66 -3z"/>
<path d="M7775 2837 l-6 -33 -182 17 c-100 9 -183 16 -183 15 -1 0 -5 -11 -8
-23 -5 -16 -3 -23 6 -23 7 0 85 -7 173 -15 88 -8 168 -15 178 -15 15 0 17 -6
11 -35 -6 -33 -5 -35 20 -35 23 0 26 4 26 38 0 20 3 61 6 90 6 48 5 52 -14 52
-16 0 -23 -8 -27 -33z"/>
<path d="M3215 2604 c-251 -91 -235 -83 -235 -109 0 -30 31 -35 253 -35 170 0
177 1 177 20 0 17 -7 20 -49 20 -46 0 -49 1 -55 31 -10 52 -8 57 32 69 20 7
41 16 45 20 8 7 -1 40 -12 39 -3 0 -73 -25 -156 -55z m45 -69 l0 -35 -90 0
c-49 0 -90 4 -90 8 0 8 142 59 168 61 7 1 12 -12 12 -34z"/>
<path d="M7370 2616 c0 -22 5 -25 88 -37 67 -9 112 -24 199 -65 107 -50 111
-51 117 -31 7 28 5 29 -84 63 l-75 29 45 7 c25 3 64 7 86 7 34 1 43 5 47 23 4
12 5 23 4 24 -1 2 -54 -4 -117 -12 -102 -14 -124 -14 -206 0 -50 9 -94 16 -98
16 -3 0 -6 -11 -6 -24z"/>
<path d="M3312 2375 l-92 -65 -88 10 c-122 14 -120 14 -115 -14 5 -23 8 -24
111 -28 l107 -4 95 60 c52 33 96 61 97 61 5 2 -10 45 -16 45 -3 -1 -48 -30
-99 -65z"/>
<path d="M7630 2420 c0 -6 11 -22 25 -36 34 -34 98 -31 103 4 4 28 -21 39 -53
22 -20 -11 -28 -10 -50 4 -14 9 -25 12 -25 6z"/>
<path d="M7320 2361 c-13 -26 -12 -72 3 -92 34 -44 92 -49 220 -19 71 17 90
18 112 8 24 -11 26 -16 21 -50 -5 -33 -4 -38 13 -38 21 0 31 18 31 55 0 83
-77 104 -232 65 -86 -22 -112 -20 -129 11 -8 16 -7 26 5 44 14 21 14 24 0 29
-25 10 -33 7 -44 -13z"/>
<path d="M3230 2264 c-101 -25 -186 -47 -189 -49 -2 -3 0 -13 5 -24 9 -18 18
-16 207 28 109 26 198 50 197 54 0 4 0 14 0 22 0 20 -9 19 -220 -31z"/>
<path d="M6890 1220 c-24 -24 -24 -29 -4 -58 17 -24 62 -30 82 -10 29 29 2 88
-39 88 -10 0 -28 -9 -39 -20z"/>
<path d="M3758 1219 c-21 -12 -24 -59 -6 -77 15 -15 61 -15 76 0 19 19 14 55
-10 72 -26 18 -36 19 -60 5z"/>
<path d="M1052 798 c-20 -20 -14 -48 17 -79 55 -55 120 -24 86 41 -24 46 -76
65 -103 38z"/>
<path d="M9644 784 c-52 -25 -70 -102 -26 -105 35 -3 48 3 75 32 31 34 34 51
11 73 -19 19 -21 19 -60 0z"/>
<path d="M2127 739 c-51 -71 -123 -118 -204 -134 -71 -14 -18 -75 64 -75 53 0
96 30 123 86 20 41 53 154 47 160 -1 1 -15 -15 -30 -37z"/>
<path d="M8606 729 c29 -155 102 -234 194 -209 42 11 73 36 67 53 -2 6 -23 16
-48 22 -70 18 -103 40 -163 107 -56 61 -56 62 -50 27z"/>
</g>
</svg>
