<?xml version="1.0" standalone="no"?>
<!DOCTYPE svg PUBLIC "-//W3C//DTD SVG 20010904//EN"
 "http://www.w3.org/TR/2001/REC-SVG-20010904/DTD/svg10.dtd">
<svg version="1.0" xmlns="http://www.w3.org/2000/svg"
 width="225.000000pt" height="225.000000pt" viewBox="0 0 225.000000 225.000000"
 preserveAspectRatio="xMidYMid meet">

<g transform="translate(0.000000,225.000000) scale(0.100000,-0.100000)"
fill="#000000" stroke="none">
<path d="M165 2205 c-30 -29 -31 -46 -7 -73 26 -30 56 -35 82 -14 30 24 30 70
0 94 -30 24 -46 23 -75 -7z"/>
<path d="M165 1975 c-31 -31 -31 -49 0 -80 31 -32 50 -31 81 0 29 29 26 58 -8
88 -27 23 -44 22 -73 -8z"/>
<path d="M536 1979 c-32 -25 -33 -59 -3 -87 28 -26 45 -27 75 -6 43 30 18 114
-34 114 -6 0 -23 -9 -38 -21z"/>
<path d="M570 1771 c0 -6 -8 -11 -18 -11 -20 0 -42 -38 -42 -71 0 -12 12 -27
30 -37 27 -15 30 -22 30 -67 0 -42 -3 -52 -22 -60 -29 -13 -46 -59 -32 -83 6
-9 20 -21 32 -27 18 -8 22 -18 22 -61 0 -43 -3 -53 -20 -57 -11 -3 -25 -17
-31 -31 -15 -32 1 -75 31 -83 17 -4 20 -14 20 -58 0 -44 -3 -54 -20 -58 -30
-8 -46 -51 -31 -83 6 -14 20 -28 31 -31 17 -4 20 -14 20 -57 0 -43 -4 -53 -22
-61 -12 -6 -26 -18 -32 -27 -14 -24 3 -70 32 -83 19 -8 22 -18 22 -60 0 -45
-3 -52 -30 -67 -18 -10 -30 -25 -30 -37 0 -33 22 -71 41 -71 9 0 19 -4 21 -10
2 -5 16 1 32 13 37 30 38 72 2 103 -21 19 -26 32 -26 72 0 42 3 50 25 60 14 6
25 18 25 26 0 8 6 17 13 19 9 4 9 6 0 6 -7 1 -13 7 -13 15 0 8 -11 23 -25 34
-21 17 -25 28 -25 70 0 42 3 52 21 57 46 15 44 96 -3 111 -27 8 -27 110 0 118
47 15 49 96 3 111 -18 5 -21 15 -21 57 0 42 4 53 25 70 14 11 25 25 25 33 0 7
6 16 13 18 10 4 10 6 0 6 -7 1 -13 8 -13 16 0 9 -11 21 -25 27 -22 10 -25 18
-25 60 0 39 5 53 24 71 24 22 30 35 27 69 -1 18 -61 66 -61 49z"/>
<path d="M182 1759 c-35 -13 -48 -53 -28 -83 24 -38 62 -44 92 -15 50 46 0
122 -64 98z"/>
<path d="M897 1742 c-21 -23 -22 -51 -1 -80 18 -26 50 -28 82 -6 26 18 30 65
6 88 -21 22 -67 20 -87 -2z"/>
<path d="M183 1529 c-27 -10 -46 -44 -38 -69 17 -53 67 -65 104 -26 44 47 -5
118 -66 95z"/>
<path d="M896 1514 c-33 -32 -4 -104 42 -104 32 0 62 29 62 60 0 36 -24 60
-60 60 -16 0 -36 -7 -44 -16z"/>
<path d="M1266 1517 c-40 -30 -7 -107 45 -107 26 0 59 35 59 63 0 48 -63 74
-104 44z"/>
<path d="M740 1366 c0 -3 9 -10 20 -16 11 -6 20 -8 20 -6 0 3 -9 10 -20 16
-11 6 -20 8 -20 6z"/>
<path d="M178 1294 c-71 -37 -25 -134 51 -109 48 15 49 85 2 109 -22 12 -30
12 -53 0z"/>
<path d="M897 1282 c-36 -40 -9 -102 45 -102 33 0 58 29 58 68 0 50 -69 72
-103 34z"/>
<path d="M1268 1286 c-23 -17 -23 -68 0 -89 40 -37 102 -7 102 49 0 45 -63 70
-102 40z"/>
<path d="M1637 1288 c-42 -33 -16 -108 38 -108 29 0 65 32 65 58 0 50 -62 80
-103 50z"/>
<path d="M750 1240 c0 -5 5 -10 11 -10 5 0 7 5 4 10 -3 6 -8 10 -11 10 -2 0
-4 -4 -4 -10z"/>
<path d="M2006 1169 c-15 -12 -26 -30 -26 -44 0 -24 42 -65 67 -65 19 0 63 45
63 65 0 20 -44 65 -63 65 -8 0 -26 -9 -41 -21z"/>
<path d="M160 1050 c-33 -33 -22 -73 25 -98 36 -19 84 21 85 71 0 16 -42 47
-65 47 -14 0 -34 -9 -45 -20z"/>
<path d="M897 1052 c-50 -55 16 -128 84 -92 25 14 26 71 1 93 -24 22 -65 21
-85 -1z"/>
<path d="M1267 1052 c-22 -24 -22 -71 1 -88 39 -30 102 -5 102 42 0 55 -68 85
-103 46z"/>
<path d="M1633 1048 c-24 -26 -22 -66 4 -85 27 -20 70 -16 87 9 21 30 20 54
-4 78 -26 26 -62 25 -87 -2z"/>
<path d="M750 1009 c0 -5 5 -7 10 -4 6 3 10 8 10 11 0 2 -4 4 -10 4 -5 0 -10
-5 -10 -11z"/>
<path d="M754 894 c-18 -14 -18 -15 4 -4 12 6 22 13 22 15 0 8 -5 6 -26 -11z"/>
<path d="M935 860 c-3 -5 -1 -10 4 -10 6 0 11 5 11 10 0 6 -2 10 -4 10 -3 0
-8 -4 -11 -10z"/>
<path d="M166 825 c-24 -25 -29 -54 -12 -79 29 -46 91 -36 109 17 17 53 -57
101 -97 62z"/>
<path d="M900 820 c-40 -40 -16 -100 40 -100 16 0 36 7 44 16 24 23 20 70 -6
88 -30 21 -54 20 -78 -4z"/>
<path d="M1270 822 c-28 -22 -30 -70 -4 -89 63 -46 139 32 84 87 -25 25 -51
25 -80 2z"/>
<path d="M745 660 c-3 -6 1 -7 9 -4 18 7 21 14 7 14 -6 0 -13 -4 -16 -10z"/>
<path d="M165 585 c-14 -13 -25 -31 -25 -38 0 -26 35 -59 63 -59 56 0 83 58
46 98 -29 31 -54 30 -84 -1z"/>
<path d="M896 588 c-32 -46 -7 -98 47 -98 34 0 57 24 57 60 0 54 -74 81 -104
38z"/>
<path d="M165 355 c-31 -31 -31 -49 0 -80 29 -30 46 -31 73 -7 34 29 37 58 8
87 -31 31 -50 32 -81 0z"/>
<path d="M531 356 c-29 -30 -24 -63 12 -90 26 -19 30 -19 55 -5 37 20 43 80
10 103 -31 22 -51 20 -77 -8z"/>
<path d="M182 140 c-35 -14 -48 -54 -29 -84 22 -33 52 -41 82 -22 36 24 37 70
3 99 -23 19 -24 19 -56 7z"/>
</g>
</svg>
