<?xml version="1.0" encoding="UTF-8"?>
<svg version="1.1" xmlns="http://www.w3.org/2000/svg" width="350" height="118">
<path d="M0 0 C3.5 0.25 3.5 0.25 5.5 2.25 C5.81884766 5.04736328 5.81884766 5.04736328 5.9140625 8.5703125 C5.95273438 9.82714844 5.99140625 11.08398438 6.03125 12.37890625 C6.0621875 13.69761719 6.093125 15.01632813 6.125 16.375 C6.16318029 17.71486918 6.20223206 19.05471383 6.2421875 20.39453125 C6.3367203 23.67954619 6.42227156 26.96455138 6.5 30.25 C7.08080322 29.96705078 7.66160645 29.68410156 8.26000977 29.39257812 C16.60714231 25.47666064 23.95300953 24.70225335 32.8125 27.8125 C39.71366321 30.96953293 44.66992262 36.09560375 47.78125 43.015625 C50.33644516 50.9589491 50.14593246 58.82429414 46.49609375 66.30859375 C42.35132354 73.54484273 36.98546413 78.48388134 28.8828125 80.77734375 C19.83582522 82.57191008 12.20421595 80.93647226 4.45703125 75.9296875 C-0.90916969 71.74199125 -3.3833578 66.59992661 -5.5 60.25 C-5.59838705 58.37426878 -5.6382283 56.49523996 -5.64526367 54.61694336 C-5.65164352 53.46242172 -5.65802338 52.30790009 -5.66459656 51.11839294 C-5.66570938 49.87147171 -5.6668222 48.62455048 -5.66796875 47.33984375 C-5.67129715 46.06146133 -5.67462555 44.78307892 -5.67805481 43.46595764 C-5.683121 40.76169352 -5.68589534 38.05752991 -5.68530273 35.35327148 C-5.6852009 31.88396668 -5.69887835 28.41486554 -5.71607494 24.94560909 C-5.72984449 21.63952812 -5.72928283 18.33344953 -5.73046875 15.02734375 C-5.73765427 13.77839828 -5.74483978 12.52945282 -5.75224304 11.24266052 C-5.74916641 10.09129105 -5.74608978 8.93992157 -5.74291992 7.75366211 C-5.74434494 6.73678818 -5.74576996 5.71991425 -5.74723816 4.67222595 C-5.3283366 0.56819031 -3.97190529 0.28370752 0 0 Z M8.1875 45.0625 C5.98400217 49.22466257 4.97132516 52.58629216 5.90625 57.296875 C7.56912864 62.56265736 9.98188174 65.1437937 14.5 68.25 C18.57047347 69.60682449 22.24391717 69.77472254 26.5 69.25 C31.8035228 66.54820537 35.59832298 62.95503105 37.5 57.25 C37.89680449 51.99234055 37.39498146 48.68897158 34.5 44.25 C30.52316963 40.31558915 27.3752584 38.09943926 21.75 37.9375 C15.37773099 38.02013749 12.22081619 40.15711545 8.1875 45.0625 Z " fill="#CE1437" transform="translate(101.5,1.75)"/>
<path d="M0 0 C5.20963592 4.28347843 9.46835703 9.59178516 10.8125 16.3125 C11.05121966 19.66495434 11.22113064 22.9713436 10.8125 26.3125 C7.76169054 29.36330946 4.18439221 28.67038708 0.0859375 28.7265625 C-0.77687836 28.74592865 -1.63969421 28.7652948 -2.52865601 28.7852478 C-5.28983616 28.84512204 -8.05105784 28.89145998 -10.8125 28.9375 C-12.68231005 28.97567259 -14.55210238 29.01472389 -16.421875 29.0546875 C-21.01027309 29.15082992 -25.59875351 29.23483166 -30.1875 29.3125 C-29.25788578 30.46474028 -28.3184875 31.60909176 -27.375 32.75 C-26.85292969 33.38808594 -26.33085937 34.02617188 -25.79296875 34.68359375 C-22.91684521 37.6017045 -19.76495291 37.49793647 -15.875 37.5625 C-11.13437704 37.54378701 -8.37934346 36.55464883 -4.1875 34.3125 C-0.9375 34.4375 -0.9375 34.4375 1.8125 35.3125 C3.8125 38.3125 3.8125 38.3125 3.9375 41.1875 C2.28781796 45.76995011 -0.93676888 47.23675387 -5.1875 49.3125 C-13.03492344 51.92830781 -22.4696655 51.18691872 -29.93359375 47.70703125 C-37.48701366 43.03359813 -41.55366798 37.25370733 -43.875 28.8125 C-44.8686614 20.86320881 -44.06086792 13.53998384 -39.48828125 6.8125 C-28.72818714 -6.04042184 -14.51603663 -7.68496057 0 0 Z M-29.0625 13.4375 C-31.28656518 15.85068145 -31.28656518 15.85068145 -31.1875 17.3125 C-21.6175 17.3125 -12.0475 17.3125 -2.1875 17.3125 C-4.17628954 12.34052615 -4.98878862 11.17991265 -9.1875 8.3125 C-16.99626305 5.70957898 -23.67238878 7.15658609 -29.0625 13.4375 Z " fill="#CE1437" transform="translate(289.1875,32.6875)"/>
<path d="M0 0 C5.16785182 3.82607024 8.15298042 9.96284751 10.14453125 15.9375 C11.01148529 26.1988249 9.71297208 33.58436473 3.39453125 41.75 C-0.87564686 46.43307065 -7.09050077 49.58793676 -13.421875 50.17578125 C-22.89992288 50.41056992 -30.05871371 48.81899392 -37.23046875 42.375 C-42.20197722 36.97074889 -44.92174153 30.22529892 -45.29296875 22.875 C-44.20806185 13.11083792 -41.37882988 6.50870669 -33.85546875 -0.0625 C-22.90568643 -7.23035027 -11.21207598 -6.42038877 0 0 Z M-29.66796875 12.9375 C-32.90116826 17.37160219 -33.22228574 20.52694944 -32.85546875 25.9375 C-31.07857866 30.61352654 -28.60867174 33.65344739 -24.85546875 36.9375 C-19.27306423 38.79830151 -13.80414906 38.87575348 -8.48046875 36.3125 C-4.75523519 32.94205059 -2.42259377 29.8414197 -0.98046875 25 C-0.77829611 20.0467702 -1.95382178 16.3543738 -4.60546875 12.1875 C-8.24844163 8.54452712 -11.71340115 6.78820144 -16.85546875 6.5625 C-22.3311392 6.81281636 -26.09059779 8.82863393 -29.66796875 12.9375 Z " fill="#CE1437" transform="translate(199.85546875,33.0625)"/>
<path d="M0 0 C7.02195372 5.84971267 10.38534447 11.09511435 11.51171875 20.17578125 C11.91848213 28.9266907 10.11794677 34.88877246 4.51171875 41.67578125 C-1.68721144 48.03468383 -7.66685023 50.42016113 -16.48828125 50.80078125 C-24.68359703 50.4855768 -30.91630871 47.44925376 -36.921875 41.9453125 C-43.00759898 35.29053381 -43.78500315 28.3227727 -43.70703125 19.62890625 C-43.08710345 12.29309394 -39.65652215 6.41528346 -34.42578125 1.30078125 C-23.85435973 -5.80460043 -10.89365693 -7.63082249 0 0 Z M-30.36328125 14.67578125 C-32.67306274 20.38230023 -32.8795013 24.81071955 -30.51953125 30.4375 C-28.37411296 34.0923733 -25.20204913 36.41264731 -21.42578125 38.30078125 C-16.47096031 38.84438571 -12.55452273 38.86515199 -8.05078125 36.61328125 C-3.40572159 32.52120488 -0.65162367 29.29319331 -0.17578125 22.98828125 C-0.49043717 18.34710637 -1.53937164 15.21296148 -4.85546875 11.8515625 C-9.12898846 8.14146703 -12.55069493 6.87976999 -18.23046875 6.953125 C-23.28866234 7.75415566 -27.19137296 10.7876356 -30.36328125 14.67578125 Z " fill="#CE1437" transform="translate(79.42578125,32.69921875)"/>
<path d="M0 0 C2.0625 1.72265625 2.0625 1.72265625 4 4.0625 C4.680625 4.8771875 5.36125 5.691875 6.0625 6.53125 C8.4884653 9.62239933 10.78849053 12.75184546 13 16 C16.87463191 14.70845603 18.231467 12.32190953 20.5 9.125 C25.93425786 1.57443049 25.93425786 1.57443049 28 0 C34.44444444 0.44444444 34.44444444 0.44444444 36 2 C36.52995132 5.97682476 36.83661125 8.58729106 34.76123047 12.09179688 C33.05703394 14.22064732 31.28497293 16.2442812 29.4375 18.25 C28.19590669 19.62020964 26.96484044 21.00005501 25.74609375 22.390625 C25.19622803 22.98907227 24.6463623 23.58751953 24.07983398 24.20410156 C22.80031382 25.93808235 22.80031382 25.93808235 23.15820312 27.99780273 C24.09217909 30.21924615 25.19237616 31.78415674 26.72265625 33.64453125 C27.26083984 34.32193359 27.79902344 34.99933594 28.35351562 35.69726562 C29.48867156 37.10226434 30.63187985 38.50079686 31.78320312 39.89257812 C34.54030394 43.3910842 35.91139581 45.38348832 36.55859375 49.88671875 C36.37425781 50.91410156 36.18992187 51.94148438 36 53 C33 55 33 55 29.67578125 55.09765625 C24.5614554 53.57042398 22.99910716 50.78775819 20.1875 46.4375 C19.24896409 45.03668118 18.30522167 43.63933186 17.35546875 42.24609375 C16.94965576 41.62404053 16.54384277 41.0019873 16.12573242 40.36108398 C15.75424072 39.91192627 15.38274902 39.46276855 15 39 C14.34 39 13.68 39 13 39 C11.27708278 41.07163803 9.65789442 43.14617078 8.0625 45.3125 C2.14191305 53.26694215 2.14191305 53.26694215 0 55 C-3 55.4375 -3 55.4375 -6 55 C-7.9375 53.3125 -7.9375 53.3125 -9 51 C-8.66238292 46.32963041 -6.51450887 43.62745491 -3.6875 40 C-2.90761719 38.989375 -2.12773437 37.97875 -1.32421875 36.9375 C0.77496812 34.28441004 2.88126943 31.63750442 5 29 C3.18647842 23.07428934 -1.03322513 18.66365939 -4.91992188 13.97070312 C-8.98788366 8.80620291 -8.98788366 8.80620291 -9.05078125 4.62109375 C-7.27203185 0.18413894 -4.47390085 -0.66153717 0 0 Z " fill="#CE1437" transform="translate(312,28)"/>
<path d="M0 0 C3.5625 0.375 3.5625 0.375 5.2668457 2.07324219 C6.80902097 4.81294982 6.91001372 6.45088004 6.85546875 9.578125 C6.84580078 10.5578125 6.83613281 11.5375 6.82617188 12.546875 C6.80103516 13.56265625 6.77589844 14.5784375 6.75 15.625 C6.72969727 17.171875 6.72969727 17.171875 6.70898438 18.75 C6.67367607 21.29219792 6.62436036 23.83333223 6.5625 26.375 C7.17738281 26.35179688 7.79226562 26.32859375 8.42578125 26.3046875 C9.23402344 26.28664063 10.04226562 26.26859375 10.875 26.25 C12.07576172 26.21519531 12.07576172 26.21519531 13.30078125 26.1796875 C15.5625 26.375 15.5625 26.375 18.5625 28.375 C19.54118153 31.23576138 19.78385111 32.76202769 18.75 35.625 C17.5625 37.375 17.5625 37.375 15.5625 38.375 C14.02226004 38.44450541 12.47915012 38.45952357 10.9375 38.4375 C9.71160156 38.42396484 9.71160156 38.42396484 8.4609375 38.41015625 C7.83445313 38.39855469 7.20796875 38.38695312 6.5625 38.375 C6.57821045 39.49994873 6.5939209 40.62489746 6.61010742 41.78393555 C6.66451216 45.96778165 6.69888836 50.15159662 6.72729492 54.33569336 C6.74235755 56.14466617 6.76281177 57.9536026 6.78881836 59.76245117 C6.8253132 62.36646515 6.84225157 64.9699952 6.85546875 67.57421875 C6.87095261 68.37961594 6.88643646 69.18501312 6.90238953 70.01481628 C6.90375158 74.58564071 6.63944579 77.72289892 3.5625 81.375 C0.5625 81.875 0.5625 81.875 -2.4375 81.375 C-4.42018794 79.85132056 -5.32201199 78.97660937 -5.79826355 76.49568176 C-5.79160172 75.79174789 -5.78493988 75.08781403 -5.77807617 74.36254883 C-5.77784958 73.56194534 -5.77762299 72.76134186 -5.77738953 71.93647766 C-5.76190567 71.07701035 -5.74642181 70.21754303 -5.73046875 69.33203125 C-5.72622391 68.4484343 -5.72197906 67.56483734 -5.71760559 66.65446472 C-5.70081043 63.83183339 -5.66315697 61.00991559 -5.625 58.1875 C-5.60995423 56.27409885 -5.59626564 54.36068651 -5.58398438 52.44726562 C-5.55090419 47.75623541 -5.4991163 43.06573869 -5.4375 38.375 C-6.46810547 38.42720703 -6.46810547 38.42720703 -7.51953125 38.48046875 C-8.42058594 38.50753906 -9.32164062 38.53460938 -10.25 38.5625 C-11.58998047 38.61470703 -11.58998047 38.61470703 -12.95703125 38.66796875 C-15.4375 38.375 -15.4375 38.375 -17.234375 37.05078125 C-19.1170709 34.42845482 -18.8932692 32.50027449 -18.4375 29.375 C-17 27.5 -17 27.5 -14.4375 26.375 C-12.88583839 26.29817662 -11.33070211 26.27952058 -9.77734375 26.3046875 C-8.55905884 26.31991455 -8.55905884 26.31991455 -7.31616211 26.33544922 C-6.69620361 26.34850098 -6.07624512 26.36155273 -5.4375 26.375 C-5.44797363 25.65844238 -5.45844727 24.94188477 -5.46923828 24.20361328 C-5.51071299 20.96911095 -5.53679892 17.73466447 -5.5625 14.5 C-5.57925781 13.37207031 -5.59601563 12.24414062 -5.61328125 11.08203125 C-5.61972656 10.00566406 -5.62617188 8.92929688 -5.6328125 7.8203125 C-5.64328613 6.82531738 -5.65375977 5.83032227 -5.66455078 4.80517578 C-5.28517488 0.74462988 -3.91117689 0.42667384 0 0 Z " fill="#CE1437" transform="translate(227.4375,1.625)"/>
<path d="M0 0 C2 2 2 2 2.3125 4.9375 C2 8 2 8 0.75 9.63671875 C-1.33027747 11.25729205 -2.71911758 11.50771613 -5.3125 11.875 C-10.19309768 12.82886274 -12.53341775 14.44886697 -16 18 C-18.21477333 21.42761411 -18.26447961 24.34302505 -18.30859375 28.375 C-18.33373047 29.60734375 -18.35886719 30.8396875 -18.38476562 32.109375 C-18.4199212 34.703075 -18.45117141 37.29683088 -18.47851562 39.890625 C-18.50494141 41.12296875 -18.53136719 42.3553125 -18.55859375 43.625 C-18.57204834 44.75164062 -18.58550293 45.87828125 -18.59936523 47.0390625 C-19.0403725 50.29837759 -19.66649176 51.71007987 -22 54 C-25.07837606 54.44892984 -27.02821816 54.65599918 -29.66040039 52.87915039 C-32.49949211 48.89655718 -31.47573818 43.22124146 -31.44604492 38.50561523 C-31.43762676 36.46817856 -31.46613519 34.43363724 -31.49804688 32.39648438 C-31.4935261 23.22383135 -30.55442333 15.917563 -25.10546875 8.37890625 C-17.6207173 1.29049602 -10.47391803 -2.17383204 0 0 Z " fill="#CE1437" transform="translate(34,29)"/>
<path d="M0 0 C1.7325 0.1546875 1.7325 0.1546875 3.5 0.3125 C5.5 3.3125 5.5 3.3125 5.5 6.3125 C4.18 6.6425 2.86 6.9725 1.5 7.3125 C2.82 7.6425 4.14 7.9725 5.5 8.3125 C4.51 9.7975 4.51 9.7975 3.5 11.3125 C0 11.625 0 11.625 -3.5 11.3125 C-5.5 9.3125 -5.5 9.3125 -5.75 5.8125 C-5.40893869 1.0376416 -4.76133169 0.4251189 0 0 Z " fill="#CE1437" transform="translate(252.5,99.6875)"/>
<path d="M0 0 C6.15234375 -0.09765625 6.15234375 -0.09765625 8 0 C9 1 9 1 9.09765625 3.28515625 C9.08605469 4.20167969 9.07445312 5.11820312 9.0625 6.0625 C9.05347656 6.98160156 9.04445313 7.90070313 9.03515625 8.84765625 C9.02355469 9.55792969 9.01195312 10.26820312 9 11 C7.52093108 11.02689216 6.04172517 11.04634621 4.5625 11.0625 C3.32693359 11.07990234 3.32693359 11.07990234 2.06640625 11.09765625 C0 11 0 11 -1 10 C-1.19382275 6.51119051 -0.77675511 3.39830361 0 0 Z M3 6 C2.67 6.66 2.34 7.32 2 8 C3.32 7.67 4.64 7.34 6 7 C5.01 6.67 4.02 6.34 3 6 Z " fill="#CE1437" transform="translate(282,100)"/>
<path d="M0 0 C6.15234375 -0.09765625 6.15234375 -0.09765625 8 0 C9 1 9 1 9.09765625 3.28515625 C9.08605469 4.20167969 9.07445312 5.11820312 9.0625 6.0625 C9.05347656 6.98160156 9.04445313 7.90070313 9.03515625 8.84765625 C9.02355469 9.55792969 9.01195312 10.26820312 9 11 C6.03 11 3.06 11 0 11 C-0.625 8.125 -0.625 8.125 -1 5 C-0.34 4.34 0.32 3.68 1 3 C0.67 2.01 0.34 1.02 0 0 Z M3 6 C3 6.66 3 7.32 3 8 C3.99 8 4.98 8 6 8 C6 7.34 6 6.68 6 6 C5.01 6 4.02 6 3 6 Z " fill="#CE1437" transform="translate(332,100)"/>
<path d="M0 0 C3.625 0.3125 3.625 0.3125 5.625 2 C6.88826211 4.92129364 6.64516252 6.33048647 5.625 9.3125 C3.625 11.3125 3.625 11.3125 0.6875 11.6875 C-2.375 11.3125 -2.375 11.3125 -4.3125 9.6875 C-5.72668205 6.52638719 -5.25377792 4.60791719 -4.375 1.3125 C-3.375 0.3125 -3.375 0.3125 0 0 Z M-1.375 3.3125 C-1.045 4.9625 -0.715 6.6125 -0.375 8.3125 C0.615 7.9825 1.605 7.6525 2.625 7.3125 C2.295 5.9925 1.965 4.6725 1.625 3.3125 C0.635 3.3125 -0.355 3.3125 -1.375 3.3125 Z " fill="#CE1437" transform="translate(311.375,99.6875)"/>
<path d="M0 0 C6.93359375 -0.09765625 6.93359375 -0.09765625 9 0 C10 1 10 1 10.09765625 3.28515625 C10.08605469 4.20167969 10.07445312 5.11820312 10.0625 6.0625 C10.05347656 6.98160156 10.04445312 7.90070313 10.03515625 8.84765625 C10.02355469 9.55792969 10.01195312 10.26820312 10 11 C9.01 11 8.02 11 7 11 C6.87625 9.865625 6.7525 8.73125 6.625 7.5625 C6.41875 6.386875 6.2125 5.21125 6 4 C5.34 3.67 4.68 3.34 4 3 C4 5.64 4 8.28 4 11 C2.68 11 1.36 11 0 11 C0 7.37 0 3.74 0 0 Z " fill="#CE1437" transform="translate(227,100)"/>
<path d="M0 0 C6.93359375 -0.09765625 6.93359375 -0.09765625 9 0 C10 1 10 1 10.09765625 3.28515625 C10.08605469 4.20167969 10.07445312 5.11820312 10.0625 6.0625 C10.05347656 6.98160156 10.04445313 7.90070313 10.03515625 8.84765625 C10.02355469 9.55792969 10.01195312 10.26820312 10 11 C9.01 11 8.02 11 7 11 C6.87625 9.865625 6.7525 8.73125 6.625 7.5625 C6.41875 6.386875 6.2125 5.21125 6 4 C5.34 3.67 4.68 3.34 4 3 C3.67 5.64 3.34 8.28 3 11 C2.01 11 1.02 11 0 11 C0 7.37 0 3.74 0 0 Z " fill="#CE1437" transform="translate(269,100)"/>
<path d="M0 0 C6.15234375 -0.09765625 6.15234375 -0.09765625 8 0 C9 1 9 1 9.09765625 3.28515625 C9.08605469 4.20167969 9.07445312 5.11820312 9.0625 6.0625 C9.05347656 6.98160156 9.04445313 7.90070313 9.03515625 8.84765625 C9.02355469 9.55792969 9.01195312 10.26820312 9 11 C8.01 11 7.02 11 6 11 C6 8.36 6 5.72 6 3 C5.01 3.495 5.01 3.495 4 4 C3.59270772 6.32156597 3.25561323 8.6568787 3 11 C2.01 11 1.02 11 0 11 C0 7.37 0 3.74 0 0 Z " fill="#CE1437" transform="translate(320,100)"/>
<path d="M0 0 C0.99 0 1.98 0 3 0 C3 1.65 3 3.3 3 5 C3.66 5 4.32 5 5 5 C5 5.99 5 6.98 5 8 C4.34 8 3.68 8 3 8 C3 9.65 3 11.3 3 13 C3.66 13 4.32 13 5 13 C5 13.99 5 14.98 5 16 C3.35 15.67 1.7 15.34 0 15 C0 12.69 0 10.38 0 8 C-0.66 8 -1.32 8 -2 8 C-2 7.01 -2 6.02 -2 5 C-1.34 5 -0.68 5 0 5 C0 3.35 0 1.7 0 0 Z " fill="#CE1437" transform="translate(294,95)"/>
<path d="M0 0 C0.99 0 1.98 0 3 0 C3 1.65 3 3.3 3 5 C3.66 5 4.32 5 5 5 C5 5.99 5 6.98 5 8 C4.34 8 3.68 8 3 8 C3 9.65 3 11.3 3 13 C3.66 13 4.32 13 5 13 C5 13.99 5 14.98 5 16 C3.35 15.67 1.7 15.34 0 15 C-1.33257403 4.44191344 -1.33257403 4.44191344 0 0 Z " fill="#CE1437" transform="translate(240,95)"/>
<path d="M0 0 C0.99 0 1.98 0 3 0 C3 6.27 3 12.54 3 19 C2.01 19 1.02 19 0 19 C0 12.73 0 6.46 0 0 Z " fill="#CE1437" transform="translate(344,92)"/>
<path d="M0 0 C0.99 0 1.98 0 3 0 C3 6.27 3 12.54 3 19 C2.01 19 1.02 19 0 19 C0 12.73 0 6.46 0 0 Z " fill="#CE1437" transform="translate(221,92)"/>
<path d="M0 0 C2.64 0 5.28 0 8 0 C7.67 0.99 7.34 1.98 7 3 C6.01 3.33 5.02 3.66 4 4 C3.67 6.31 3.34 8.62 3 11 C2.01 11 1.02 11 0 11 C0 7.37 0 3.74 0 0 Z " fill="#CE1437" transform="translate(260,100)"/>
<path d="M0 0 C0.99 0 1.98 0 3 0 C3 3.63 3 7.26 3 11 C2.01 11 1.02 11 0 11 C0 7.37 0 3.74 0 0 Z " fill="#CE1437" transform="translate(301,100)"/>
<path d="M0 0 C0.99 0 1.98 0 3 0 C3 1.32 3 2.64 3 4 C2.01 4 1.02 4 0 4 C0 2.68 0 1.36 0 0 Z " fill="#CE1437" transform="translate(301,95)"/>
</svg>
